<svg width="164" height="62" fill="none" xmlns="http://www.w3.org/2000/svg"><path fill-rule="evenodd" clip-rule="evenodd" d="M3.433 30.501L0 36.601l26.145 14.713c10.107 5.688 22.912 2.105 28.6-8.002 5.688-10.108 2.105-22.912-8.003-28.6-10.107-5.688-22.912-2.105-28.6 8.002a20.922 20.922 0 00-2.206 14.823L3.433 30.501zm39.877-9.688c6.739 3.792 9.127 12.328 5.335 19.067-3.792 6.738-12.328 9.126-19.066 5.334-6.739-3.791-9.127-12.328-5.335-19.066 3.792-6.739 12.328-9.127 19.066-5.335z" fill="#F1D9DD"/><path d="M4.934 20.328l6.16-3.322 14.24 26.405-6.161 3.322-14.24-26.405z" fill="#FCB9C3"/><path fill-rule="evenodd" clip-rule="evenodd" d="M23.934 6.328h-7v30c0 11.598 9.402 21 21 21s21-9.402 21-21-9.402-21-21-21a20.922 20.922 0 00-14 5.347V6.328zm0 30c0 7.732 6.268 14 14 14s14-6.268 14-14-6.268-14-14-14-14 6.268-14 14z" fill="#D56D7D"/><path d="M163.751 35.16c0 1.422-.247 2.736-.742 3.942a9.213 9.213 0 01-2.066 3.119c-.891.873-1.966 1.557-3.226 2.052-1.251.485-2.642.728-4.172.728h-7.641V25.332h7.641c1.53 0 2.921.247 4.172.742 1.26.495 2.335 1.18 3.226 2.052a9.04 9.04 0 012.066 3.119c.495 1.197.742 2.502.742 3.915zm-4.671 0c0-.972-.126-1.85-.378-2.632-.252-.784-.616-1.445-1.093-1.985a4.56 4.56 0 00-1.728-1.255c-.684-.297-1.463-.446-2.336-.446h-3.051v12.65h3.051c.873 0 1.652-.145 2.336-.432a4.76 4.76 0 001.728-1.256c.477-.549.841-1.215 1.093-1.998.252-.783.378-1.665.378-2.646z" fill="#D56D7D"/><path d="M79.005 43.894c1.674 0 2.939-.36 3.794-1.08.864-.73 1.296-1.75 1.296-3.065 0-.603-.117-1.143-.351-1.62a3.263 3.263 0 00-.986-1.228c-.432-.342-.963-.603-1.593-.783-.63-.18-1.345-.27-2.146-.27h-4.806v8.046h4.792zm-4.792-16.902v7.843h4.13c.883 0 1.634-.112 2.255-.337.63-.225 1.143-.522 1.54-.891.404-.37.701-.788.89-1.256.19-.468.284-.95.284-1.444 0-1.287-.41-2.26-1.229-2.916-.81-.666-2.065-1-3.766-1h-4.104zm4.104-1.094c1.089 0 2.034.108 2.835.324.8.216 1.462.536 1.984.959.522.414.91.922 1.161 1.525.252.603.378 1.287.378 2.052 0 .504-.09.99-.27 1.458-.17.468-.423.9-.756 1.296a4.75 4.75 0 01-1.215 1.04 5.895 5.895 0 01-1.647.661c1.503.216 2.655.716 3.456 1.499.81.774 1.215 1.795 1.215 3.064 0 .81-.144 1.54-.432 2.187a4.425 4.425 0 01-1.255 1.647c-.55.45-1.224.797-2.025 1.04-.801.234-1.71.35-2.727.35h-6.197V25.899h5.495zm17.073 9.437c.846 0 1.602-.1 2.268-.297.675-.207 1.242-.5 1.7-.878a3.729 3.729 0 001.067-1.363c.243-.531.365-1.13.365-1.796 0-1.359-.446-2.367-1.337-3.024-.882-.657-2.173-.985-3.874-.985h-3.497v8.343h3.308zM103.868 45h-1.188a1.02 1.02 0 01-.392-.068.846.846 0 01-.283-.283l-6.13-7.75a1.601 1.601 0 00-.229-.256.692.692 0 00-.256-.162 1.075 1.075 0 00-.338-.094 3.433 3.433 0 00-.472-.027h-2.498V45h-1.39V25.898h4.887c2.196 0 3.838.428 4.927 1.283 1.098.846 1.647 2.092 1.647 3.74a5.13 5.13 0 01-.378 1.997 4.71 4.71 0 01-1.093 1.593c-.468.45-1.04.82-1.715 1.107a7.999 7.999 0 01-2.254.58c.216.136.41.316.58.54l6.575 8.263zm14.335-6.938l-3.888-9.653a9.62 9.62 0 01-.392-1.134c-.054.216-.112.423-.175.621a5.859 5.859 0 01-.203.527l-3.888 9.639h8.546zM122.428 45h-1.066a.492.492 0 01-.311-.095.731.731 0 01-.189-.27l-2.241-5.548h-9.382l-2.241 5.548a.58.58 0 01-.189.257.503.503 0 01-.324.108h-1.053l7.816-19.103h1.364L122.428 45zm18.719-19.102v19.103h-.648a.73.73 0 01-.297-.054.815.815 0 01-.216-.216l-12.407-16.578c.027.27.041.526.041.77V45h-1.215V25.898h.688c.126 0 .221.018.284.054a.567.567 0 01.229.203l12.38 16.537a7.753 7.753 0 01-.041-.77V25.899h1.202z" fill="#272727"/></svg>